<svg id="Layer_1" data-name="Layer 1" xmlns="http://www.w3.org/2000/svg" viewBox="0 0 329.93 278.69"><defs><style>.cls-1{fill:#005098;}</style></defs><path class="cls-1" d="M132.82,359.11l12.4-198.19A76.64,76.64,0,0,1,221.37,93H400.29a55.35,55.35,0,0,1,55.33,53.54l7.05,213.16A10.93,10.93,0,0,1,451.75,371h-9.68a11,11,0,0,1-11-10.55l-7.94-200.17A35.18,35.18,0,0,0,388,126.53H333.66a9.41,9.41,0,0,0-9.4,9.62l.42,20.58a6.33,6.33,0,0,0,5.91,6.19l25.23,1.84c31.78,1,31.69,32.14,31.78,36.5l2.58,161.5a8.37,8.37,0,0,1-8.38,8.5L367.49,371a8.07,8.07,0,0,1-8.06-7.94l-2-157.08a8.84,8.84,0,0,0-8.85-8.73H335.45c-9.91,0-11.89,8.31-12.15,12.4l-3.63,151.85a10.12,10.12,0,0,1-10.1,9.5H296.46a8.84,8.84,0,0,1-8.82-9.38l.91-149c0-6-3.21-14.64-13.39-14.89l-11.92-.24c-11.17-.51-12.36,10.64-12.66,14.65l-5.79,150.56a9.44,9.44,0,0,1-9.22,8.71l-13.55.28a12,12,0,0,1-12.2-13.06L218,198.91a35.82,35.82,0,0,1,32-32.48l29.21-3a9.69,9.69,0,0,0,8.66-9.36l.47-16.2a10.08,10.08,0,0,0-10-10.36l-55.31-.26c-23.51-.11-42.32,17.53-44.91,40.9L166.2,359.83A12.59,12.59,0,0,1,153.7,371H143.43a10.69,10.69,0,0,1-10.61-11.92" transform="translate(-132.75 -93.04)"/></svg>