<svg id="Layer_1" data-name="Layer 1" xmlns="http://www.w3.org/2000/svg" viewBox="0 0 748.94 302.26"><defs></defs><path class="cls-1" d="M811.17,426.76q-8.05,0-16.56-.37c-69.14-3-151.88-23.39-254.83-53.11-44.54-12.86-88.69-19.3-131.17-19.1a382.06,382.06,0,0,0-98.16,12.95c-53.06,14.38-82.68,35.92-83,36.14a4.19,4.19,0,1,1-5-6.74c1.24-.91,30.89-22.54,85.33-37.37a390.15,390.15,0,0,1,100.43-13.35c43.4-.24,88.42,6.31,133.85,19.42C644.48,394.78,726.65,415.07,795,418c36.61,1.59,66.43-2,91.2-11,26.57-9.67,46.77-25.34,61.75-47.91a4.19,4.19,0,1,1,7,4.63c-16,24.11-37.56,40.85-65.87,51.15-21.93,8-47.52,11.9-77.86,11.9" transform="translate(-220.81 -270.5)"/><path class="cls-1" d="M260.12,337.66l.45-40.3a2.11,2.11,0,0,1,3.79-1.24l35.68,48a2.1,2.1,0,0,1-.9,3.2l-3.87,1.56a2.11,2.11,0,0,1-2.47-.7l-24-32.42-.19.07-.52,41.55a2.1,2.1,0,0,1-3.6,1.44L235.08,329l-.19.08,5.2,40.34a2.11,2.11,0,0,1-1.31,2.22l-3.86,1.56a2.1,2.1,0,0,1-2.87-1.68l-7.54-59.34a2.1,2.1,0,0,1,3.57-1.75l28.45,28.71a2.1,2.1,0,0,0,3.59-1.45" transform="translate(-220.81 -270.5)"/><path class="cls-1" d="M339.22,316.22l13.87-1.94a2.1,2.1,0,0,0,1.49-3.2l-9.09-14.36a2.1,2.1,0,0,0-3.79.53l-4.79,16.3a2.1,2.1,0,0,0,2.31,2.67m3.5-39.32,34.83,54.78a2.1,2.1,0,0,1-1.48,3.2l-4.48.63a2.11,2.11,0,0,1-2.06-.95l-8.22-12.85a2.12,2.12,0,0,0-2.07-.94l-24.14,3.38a2.11,2.11,0,0,0-1.72,1.5l-4.2,14.55a2.06,2.06,0,0,1-1.72,1.49l-4.37.61a2.09,2.09,0,0,1-2.31-2.66l18.16-62.2a2.09,2.09,0,0,1,3.78-.54" transform="translate(-220.81 -270.5)"/><path class="cls-1" d="M411.52,300.6l1.64,0q9.64.23,13.71-2.76a9.69,9.69,0,0,0,4.19-8,9.89,9.89,0,0,0-1.26-5.47,9.75,9.75,0,0,0-3.61-3.46,17.4,17.4,0,0,0-5.29-1.88,39,39,0,0,0-6.4-.66l-2.46-.06Zm6.24-29.82a30.32,30.32,0,0,1,8.54,1.43,24.26,24.26,0,0,1,7.24,3.71,17.71,17.71,0,0,1,4.95,5.81,15.72,15.72,0,0,1,1.71,7.84,16.8,16.8,0,0,1-4.68,11.54q-4.17,4.39-11.76,6.05a.92.92,0,0,0-.6,1.39l15,23.26a2.1,2.1,0,0,1-1.82,3.24l-4.86-.12a2.08,2.08,0,0,1-1.72-1l-14.53-24.36a2.82,2.82,0,0,0-2.37-1.38l-1.57,0-.57,24.16a2.1,2.1,0,0,1-2.15,2l-4.51-.1a2.1,2.1,0,0,1-2.05-2.15l1.39-59.59a2.11,2.11,0,0,1,2.15-2.05Z" transform="translate(-220.81 -270.5)"/><path class="cls-1" d="M467.31,304.8a32.59,32.59,0,0,1,4.93-12.46,34.12,34.12,0,0,1,9.11-9.32,34.73,34.73,0,0,1,25.94-5.48A44.4,44.4,0,0,1,522.36,283a39.37,39.37,0,0,1,10.87,10,2.1,2.1,0,0,1-.5,3l-4,2.76a2.1,2.1,0,0,1-2.85-.47,31,31,0,0,0-19.34-11.75,27.4,27.4,0,0,0-10.69.07,25.65,25.65,0,0,0-9.07,3.8,24,24,0,0,0-6.76,6.92,25.27,25.27,0,0,0-3.66,9.45,25.07,25.07,0,0,0,3.31,16.75,26.2,26.2,0,0,0,7.19,7.59,28.75,28.75,0,0,0,11.93,4.68q9.28,1.67,16-1.47a20.93,20.93,0,0,0,9-8,2.11,2.11,0,0,0-1.41-3.2l-12-2.13a2.11,2.11,0,0,1-1.7-2.44l.8-4.45a2.1,2.1,0,0,1,2.44-1.7l22.59,4a2.11,2.11,0,0,1,1.68,2.51c-.22,1.1-.49,2.23-.78,3.39a31.41,31.41,0,0,1-2.14,5.87,30.39,30.39,0,0,1-3.75,5.89,31.88,31.88,0,0,1-6.18,5.67,28.32,28.32,0,0,1-12.43,5.39,43.06,43.06,0,0,1-14-.41,37.08,37.08,0,0,1-15.43-6.09,34.73,34.73,0,0,1-9.6-10.15,35.34,35.34,0,0,1-4.61-23.75" transform="translate(-220.81 -270.5)"/><path class="cls-1" d="M579.21,296.72a2.1,2.1,0,0,1,1.45,2.59l-10.12,36.11a25.27,25.27,0,0,0-1,6.91,16,16,0,0,0,1.24,6.21,14,14,0,0,0,3.76,5,16.67,16.67,0,0,0,6.57,3.33,18.33,18.33,0,0,0,7.48.71,13.71,13.71,0,0,0,5.81-2.1,13.85,13.85,0,0,0,4.13-4.28,22.45,22.45,0,0,0,2.5-5.68L611.58,308a2.1,2.1,0,0,1,2.59-1.46l4.35,1.22a2.1,2.1,0,0,1,1.46,2.59l-10.38,37a30.81,30.81,0,0,1-4.1,9,23.33,23.33,0,0,1-6.58,6.52,21.78,21.78,0,0,1-8.84,3.22,26.53,26.53,0,0,1-10.92-.93,28.3,28.3,0,0,1-9.07-4.31,21.52,21.52,0,0,1-6.28-7.08,23.76,23.76,0,0,1-2.77-9.67,34.73,34.73,0,0,1,1.44-12.18L572.27,297a2.1,2.1,0,0,1,2.59-1.46Z" transform="translate(-220.81 -270.5)"/><path class="cls-1" d="M688.41,327.78l-1.08,4.39a2.1,2.1,0,0,1-2.54,1.53l-21.92-5.38a2.1,2.1,0,0,0-2.54,1.55l-2.8,11.36a2.11,2.11,0,0,0,1.55,2.54L681,349.15a2.1,2.1,0,0,1,1.54,2.54l-1,4.29a2.11,2.11,0,0,1-2.55,1.54L657,352.14a2.09,2.09,0,0,0-2.54,1.53l-4.23,17.25a2.09,2.09,0,0,0,1.53,2.53l21.93,5.39a2.1,2.1,0,0,1,1.54,2.54l-1,4.29a2.11,2.11,0,0,1-2.54,1.54l-30.3-7.44a2.1,2.1,0,0,1-1.54-2.54L654,319.34a2.09,2.09,0,0,1,2.53-1.54l30.3,7.44a2.1,2.1,0,0,1,1.54,2.54" transform="translate(-220.81 -270.5)"/><path class="cls-1" d="M726.17,363.84l1.63.27q9.51,1.54,14-.85A9.75,9.75,0,0,0,747,355.9a9.9,9.9,0,0,0-.5-5.59,9.73,9.73,0,0,0-3.1-3.93,17.39,17.39,0,0,0-5-2.58,39.27,39.27,0,0,0-6.24-1.54l-2.44-.39Zm10.28-28.67a30,30,0,0,1,8.25,2.59,23.83,23.83,0,0,1,6.68,4.67,17.71,17.71,0,0,1,4.1,6.43,15.77,15.77,0,0,1,.62,8,16.74,16.74,0,0,1-6.23,10.79,21.77,21.77,0,0,1-11.7,4.31,1.51,1.51,0,0,0-1.18,2.15l10.9,23.37a2.65,2.65,0,0,1-2.83,3.73l-3.78-.61a2.09,2.09,0,0,1-1.57-1.19l-11.3-26a3.3,3.3,0,0,0-2.5-1.94l-1-.15-3.78,23.3a2.65,2.65,0,0,1-3,2.19l-3.39-.55a2.64,2.64,0,0,1-2.18-3L722,335.49a2.65,2.65,0,0,1,3-2.19Z" transform="translate(-220.81 -270.5)"/><path class="cls-1" d="M799.05,343.73l-1.92,59.58a2.11,2.11,0,0,1-2.17,2l-4.41-.14a2.1,2.1,0,0,1-2-2.17l1.92-59.58a2.1,2.1,0,0,1,2.17-2l4.41.14a2.1,2.1,0,0,1,2,2.17" transform="translate(-220.81 -270.5)"/><path class="cls-1" d="M860.71,336.47l.92,4.42a2.12,2.12,0,0,1-1.64,2.49l-10.75,2.22a2.11,2.11,0,0,0-1.63,2.49l10.33,49.82a2.1,2.1,0,0,1-1.62,2.49l-4.33.89a2.09,2.09,0,0,1-2.48-1.62l-10.33-49.83a2.1,2.1,0,0,0-2.49-1.63l-10.75,2.23a2.12,2.12,0,0,1-2.49-1.63l-.91-4.43a2.09,2.09,0,0,1,1.62-2.48l34.06-7.06a2.1,2.1,0,0,1,2.49,1.63" transform="translate(-220.81 -270.5)"/><path class="cls-1" d="M904.52,351.07l9.14-10.61a2.09,2.09,0,0,0-1-3.38l-16.3-4.81a2.1,2.1,0,0,0-2.49,2.9L901,350.58a2.1,2.1,0,0,0,3.5.49m-23.29-31.88,62.3,18.23a2.11,2.11,0,0,1,1,3.39l-3,3.42a2.09,2.09,0,0,1-2.17.65l-14.66-4.24a2.11,2.11,0,0,0-2.17.65l-15.92,18.45a2.12,2.12,0,0,0-.31,2.27l6.43,13.7a2.09,2.09,0,0,1-.3,2.27l-2.89,3.34a2.09,2.09,0,0,1-3.49-.49L878.73,322.1a2.11,2.11,0,0,1,2.5-2.91" transform="translate(-220.81 -270.5)"/><path class="cls-1" d="M815.46,572.76c-67.68,0-143.94-19.12-226.26-39.76-19.83-5-40.33-10.12-61-15.06-92.72-22.17-166.28-12.11-211.66.23-49,13.32-76.3,32-76.57,32.15a4.19,4.19,0,1,1-4.76-6.89c1.15-.79,28.77-19.64,79.14-33.34,46.31-12.6,121.35-22.88,215.8-.29,20.73,4.95,41.26,10.1,61.1,15.07,75.18,18.85,146.19,36.66,208.93,39.22,69.12,2.81,120.8-13.15,162.62-50.26a4.19,4.19,0,0,1,5.56,6.26c-43.67,38.75-95.16,52.67-152.88,52.67" transform="translate(-220.81 -270.5)"/><path class="cls-1" d="M265.37,484.2l-.8-43.41a1.52,1.52,0,0,1,2.71-1l38.62,48.82a1.52,1.52,0,0,1-.58,2.34l-4.92,2.15a1.5,1.5,0,0,1-1.8-.46l-25.25-32-.19.08.73,42.93a1.52,1.52,0,0,1-2.56,1.13l-31.27-29.89-.2.08,6.47,40.61a1.52,1.52,0,0,1-.89,1.63l-4.92,2.15a1.51,1.51,0,0,1-2.11-1.15l-9.7-61.52a1.52,1.52,0,0,1,2.55-1.33l31.55,30a1.51,1.51,0,0,0,2.56-1.13" transform="translate(-220.81 -270.5)"/><path class="cls-1" d="M351.69,418.29l1.07,5.57a1.51,1.51,0,0,1-1.2,1.78l-23.31,4.49a1.54,1.54,0,0,0-1.21,1.78l2.44,12.63a1.52,1.52,0,0,0,1.78,1.21l23.31-4.49a1.53,1.53,0,0,1,1.78,1.2l1,5.48a1.52,1.52,0,0,1-1.2,1.78l-23.31,4.49a1.51,1.51,0,0,0-1.2,1.78l3.57,18.57a1.53,1.53,0,0,0,1.78,1.21l23.31-4.49a1.52,1.52,0,0,1,1.78,1.2l1.05,5.48a1.52,1.52,0,0,1-1.2,1.78l-31.77,6.12a1.52,1.52,0,0,1-1.78-1.2L316.94,425a1.51,1.51,0,0,1,1.2-1.78l31.77-6.12a1.53,1.53,0,0,1,1.78,1.21" transform="translate(-220.81 -270.5)"/><path class="cls-1" d="M398.29,442.69l1.64,0q9.63-.24,13.57-3.4a10,10,0,0,0-1.47-16.9,17.76,17.76,0,0,0-5.38-1.62,39.09,39.09,0,0,0-6.42-.36l-2.46.06Zm4.84-30.07a30.18,30.18,0,0,1,8.59,1,23.92,23.92,0,0,1,7.41,3.37,17.64,17.64,0,0,1,5.21,5.57,15.68,15.68,0,0,1,2.09,7.75,16.75,16.75,0,0,1-4.14,11.74q-4,4.67-11.7,6.66a.75.75,0,0,0-.43,1.16l16.89,23.62a1.52,1.52,0,0,1-1.2,2.4l-6.27.14a1.49,1.49,0,0,1-1.27-.64L403.91,452a3.62,3.62,0,0,0-3.16-1.72l-2.28,0,.58,24.74a1.52,1.52,0,0,1-1.48,1.55l-5.69.13a1.52,1.52,0,0,1-1.55-1.48l-1.42-60.75a1.51,1.51,0,0,1,1.48-1.55Z" transform="translate(-220.81 -270.5)"/><path class="cls-1" d="M451.25,444.16a32.58,32.58,0,0,1,4.64-12.57,34,34,0,0,1,8.89-9.53,34.66,34.66,0,0,1,25.79-6.1,44.27,44.27,0,0,1,15.21,5.1,39.52,39.52,0,0,1,11.47,10.25,1.54,1.54,0,0,1-.31,2.19L512.05,437a1.53,1.53,0,0,1-2.08-.3A31,31,0,0,0,490,425a27.61,27.61,0,0,0-10.69.33,25.54,25.54,0,0,0-9,4,24,24,0,0,0-6.59,7.09,25.14,25.14,0,0,0-3.44,9.53,24.6,24.6,0,0,0,.26,8,24.17,24.17,0,0,0,3.45,8.62,26.22,26.22,0,0,0,7.37,7.42,28.49,28.49,0,0,0,12,4.39q9.33,1.44,16-1.84a21.23,21.23,0,0,0,9.24-9,1.54,1.54,0,0,0-1.09-2.28l-13.44-2.07a1.52,1.52,0,0,1-1.27-1.74l.87-5.61a1.52,1.52,0,0,1,1.73-1.27l23.84,3.67a1.53,1.53,0,0,1,1.28,1.75c-.23,1.3-.5,2.64-.82,4a30.84,30.84,0,0,1-2,5.92,29.45,29.45,0,0,1-3.62,6,31.45,31.45,0,0,1-6,5.82,28.43,28.43,0,0,1-12.29,5.68,43,43,0,0,1-14-.07,37.13,37.13,0,0,1-15.57-5.73,34.59,34.59,0,0,1-9.84-9.91,34.12,34.12,0,0,1-4.81-11.95,34.5,34.5,0,0,1-.38-11.69" transform="translate(-220.81 -270.5)"/><path class="cls-1" d="M591.38,443.57,589.86,449A1.53,1.53,0,0,1,588,450.1l-22.86-6.35a1.54,1.54,0,0,0-1.88,1.06l-3.44,12.4a1.52,1.52,0,0,0,1.06,1.87l22.87,6.34a1.51,1.51,0,0,1,1.06,1.87l-1.49,5.38a1.52,1.52,0,0,1-1.87,1.06l-22.87-6.35a1.52,1.52,0,0,0-1.87,1.06l-5.06,18.23a1.51,1.51,0,0,0,1.06,1.86l22.88,6.35a1.52,1.52,0,0,1,1.06,1.87l-1.5,5.38a1.51,1.51,0,0,1-1.87,1.05l-31.17-8.64a1.52,1.52,0,0,1-1.06-1.88l16.24-58.55a1.52,1.52,0,0,1,1.87-1.06l31.18,8.65a1.52,1.52,0,0,1,1.06,1.87" transform="translate(-220.81 -270.5)"/><path class="cls-1" d="M628.37,452.78l29.13,52.69a1.52,1.52,0,0,0,2.8-.34L671,465.87a1.52,1.52,0,0,1,1.87-1.07l5.48,1.5a1.53,1.53,0,0,1,1.06,1.87l-16.2,59.36a1.51,1.51,0,0,1-2.79.33l-29.18-52.51a1.53,1.53,0,0,0-2.8.34L617.9,514.36a1.5,1.5,0,0,1-1.86,1.07l-5.49-1.49a1.52,1.52,0,0,1-1.06-1.87l16.08-59a1.52,1.52,0,0,1,2.8-.34" transform="translate(-220.81 -270.5)"/><path class="cls-1" d="M750.17,483.1l-1,5.59a1.53,1.53,0,0,1-1.78,1.21l-11.93-2.24a1.52,1.52,0,0,0-1.77,1.22L724.05,540a1.52,1.52,0,0,1-1.77,1.21l-5.49-1a1.52,1.52,0,0,1-1.21-1.77l9.59-51.16a1.52,1.52,0,0,0-1.22-1.77L712,483.28a1.53,1.53,0,0,1-1.22-1.78l1.05-5.58a1.52,1.52,0,0,1,1.77-1.21L749,481.33a1.53,1.53,0,0,1,1.22,1.77" transform="translate(-220.81 -270.5)"/><path class="cls-1" d="M789.85,486.89l-3.67,60.66a1.52,1.52,0,0,1-1.61,1.42l-5.57-.34a1.51,1.51,0,0,1-1.42-1.61l3.67-60.65a1.51,1.51,0,0,1,1.61-1.42l5.57.33a1.51,1.51,0,0,1,1.42,1.61" transform="translate(-220.81 -270.5)"/><path class="cls-1" d="M857.28,522.25l8.61-42.55a1.52,1.52,0,0,1,2.86-.36l27.14,56a1.52,1.52,0,0,1-1.07,2.15l-5.27,1a1.53,1.53,0,0,1-1.67-.83L870.17,501l-.2,0-8.57,42.08a1.52,1.52,0,0,1-2.75.54l-24.07-36-.2,0-2.48,41.05a1.5,1.5,0,0,1-1.22,1.4l-5.27,1a1.52,1.52,0,0,1-1.81-1.59l3.86-62.16a1.52,1.52,0,0,1,2.77-.75l24.3,36.11a1.52,1.52,0,0,0,2.75-.55" transform="translate(-220.81 -270.5)"/><path class="cls-1" d="M926.55,447.21l3.13,4.74a1.51,1.51,0,0,1-.43,2.11l-19.79,13.1a1.52,1.52,0,0,0-.43,2.1l7.1,10.73a1.53,1.53,0,0,0,2.11.43L938,467.31a1.52,1.52,0,0,1,2.1.43l3.09,4.66a1.52,1.52,0,0,1-.43,2.1L923,487.6a1.54,1.54,0,0,0-.43,2.11L933,505.48a1.53,1.53,0,0,0,2.11.43l19.79-13.1a1.53,1.53,0,0,1,2.11.43l3.07,4.65a1.52,1.52,0,0,1-.42,2.11l-27,17.85a1.52,1.52,0,0,1-2.11-.43L897,466.74a1.5,1.5,0,0,1,.43-2.1l27-17.86a1.53,1.53,0,0,1,2.11.43" transform="translate(-220.81 -270.5)"/></svg>